<mxfile host="Electron" modified="2023-06-07T08:45:14.926Z" agent="Mozilla/5.0 (Windows NT 10.0; Win64; x64) AppleWebKit/537.36 (KHTML, like Gecko) draw.io/21.2.1 Chrome/112.0.5615.87 Electron/24.1.2 Safari/537.36" etag="U6ehzzD7yx2eaKYGg0yO" version="21.2.1" type="device">
  <diagram name="페이지-1" id="BtdzQmSHrRSy_m0g-Jml">
    <mxGraphModel dx="1418" dy="948" grid="1" gridSize="10" guides="1" tooltips="1" connect="1" arrows="1" fold="1" page="1" pageScale="1" pageWidth="1654" pageHeight="1169" math="0" shadow="0">
      <root>
        <mxCell id="0" />
        <mxCell id="1" parent="0" />
        <mxCell id="Xcv0BSqhcVWVAexfwxqK-1" value="&lt;font style=&quot;font-size: 18px;&quot;&gt;Start&lt;/font&gt;" style="ellipse;whiteSpace=wrap;html=1;" vertex="1" parent="1">
          <mxGeometry x="546" y="30" width="100" height="60" as="geometry" />
        </mxCell>
        <mxCell id="Xcv0BSqhcVWVAexfwxqK-2" value="IntStack구조체 생성(s)" style="rounded=0;whiteSpace=wrap;html=1;" vertex="1" parent="1">
          <mxGeometry x="536" y="120" width="120" height="60" as="geometry" />
        </mxCell>
        <mxCell id="Xcv0BSqhcVWVAexfwxqK-3" value="Initialize==-1" style="rhombus;whiteSpace=wrap;html=1;" vertex="1" parent="1">
          <mxGeometry x="526" y="210" width="140" height="80" as="geometry" />
        </mxCell>
        <mxCell id="Xcv0BSqhcVWVAexfwxqK-4" value="스택생성에 &lt;br&gt;실패하였습니다." style="shape=document;whiteSpace=wrap;html=1;boundedLbl=1;" vertex="1" parent="1">
          <mxGeometry x="716" y="210" width="120" height="80" as="geometry" />
        </mxCell>
        <mxCell id="Xcv0BSqhcVWVAexfwxqK-5" value="" style="endArrow=classic;html=1;rounded=0;exitX=0.5;exitY=1;exitDx=0;exitDy=0;entryX=0.5;entryY=0;entryDx=0;entryDy=0;" edge="1" parent="1" source="Xcv0BSqhcVWVAexfwxqK-1" target="Xcv0BSqhcVWVAexfwxqK-2">
          <mxGeometry width="50" height="50" relative="1" as="geometry">
            <mxPoint x="676" y="350" as="sourcePoint" />
            <mxPoint x="726" y="300" as="targetPoint" />
          </mxGeometry>
        </mxCell>
        <mxCell id="Xcv0BSqhcVWVAexfwxqK-6" value="" style="endArrow=classic;html=1;rounded=0;exitX=0.5;exitY=1;exitDx=0;exitDy=0;entryX=0.5;entryY=0;entryDx=0;entryDy=0;" edge="1" parent="1" source="Xcv0BSqhcVWVAexfwxqK-2" target="Xcv0BSqhcVWVAexfwxqK-3">
          <mxGeometry width="50" height="50" relative="1" as="geometry">
            <mxPoint x="606" y="100" as="sourcePoint" />
            <mxPoint x="606" y="130" as="targetPoint" />
          </mxGeometry>
        </mxCell>
        <mxCell id="Xcv0BSqhcVWVAexfwxqK-7" value="T" style="endArrow=classic;html=1;rounded=0;exitX=1;exitY=0.5;exitDx=0;exitDy=0;entryX=0;entryY=0.5;entryDx=0;entryDy=0;" edge="1" parent="1" source="Xcv0BSqhcVWVAexfwxqK-3" target="Xcv0BSqhcVWVAexfwxqK-4">
          <mxGeometry width="50" height="50" relative="1" as="geometry">
            <mxPoint x="616" y="110" as="sourcePoint" />
            <mxPoint x="616" y="140" as="targetPoint" />
          </mxGeometry>
        </mxCell>
        <mxCell id="Xcv0BSqhcVWVAexfwxqK-8" value="F" style="endArrow=classic;html=1;rounded=0;exitX=0.5;exitY=1;exitDx=0;exitDy=0;entryX=0.5;entryY=0;entryDx=0;entryDy=0;" edge="1" parent="1" source="Xcv0BSqhcVWVAexfwxqK-3" target="Xcv0BSqhcVWVAexfwxqK-9">
          <mxGeometry width="50" height="50" relative="1" as="geometry">
            <mxPoint x="676" y="350" as="sourcePoint" />
            <mxPoint x="596" y="340" as="targetPoint" />
          </mxGeometry>
        </mxCell>
        <mxCell id="Xcv0BSqhcVWVAexfwxqK-9" value="int menu,x&lt;br&gt;선언" style="rounded=0;whiteSpace=wrap;html=1;" vertex="1" parent="1">
          <mxGeometry x="536" y="330" width="120" height="60" as="geometry" />
        </mxCell>
        <mxCell id="Xcv0BSqhcVWVAexfwxqK-10" value="menu값 입력" style="shape=parallelogram;perimeter=parallelogramPerimeter;whiteSpace=wrap;html=1;fixedSize=1;" vertex="1" parent="1">
          <mxGeometry x="536" y="430" width="120" height="40" as="geometry" />
        </mxCell>
        <mxCell id="Xcv0BSqhcVWVAexfwxqK-11" value="menu==0" style="rhombus;whiteSpace=wrap;html=1;" vertex="1" parent="1">
          <mxGeometry x="541" y="500" width="110" height="60" as="geometry" />
        </mxCell>
        <mxCell id="Xcv0BSqhcVWVAexfwxqK-12" value="Terminate(&amp;amp;s)" style="shape=process;whiteSpace=wrap;html=1;backgroundOutline=1;" vertex="1" parent="1">
          <mxGeometry x="716" y="500" width="120" height="60" as="geometry" />
        </mxCell>
        <mxCell id="Xcv0BSqhcVWVAexfwxqK-13" value="T" style="endArrow=classic;html=1;rounded=0;exitX=1;exitY=0.5;exitDx=0;exitDy=0;entryX=0;entryY=0.5;entryDx=0;entryDy=0;" edge="1" parent="1" source="Xcv0BSqhcVWVAexfwxqK-11" target="Xcv0BSqhcVWVAexfwxqK-12">
          <mxGeometry width="50" height="50" relative="1" as="geometry">
            <mxPoint x="676" y="260" as="sourcePoint" />
            <mxPoint x="756" y="260" as="targetPoint" />
          </mxGeometry>
        </mxCell>
        <mxCell id="Xcv0BSqhcVWVAexfwxqK-14" value="menu" style="rhombus;whiteSpace=wrap;html=1;" vertex="1" parent="1">
          <mxGeometry x="542" y="600" width="110" height="60" as="geometry" />
        </mxCell>
        <mxCell id="Xcv0BSqhcVWVAexfwxqK-15" value="F" style="endArrow=classic;html=1;rounded=0;exitX=0.5;exitY=1;exitDx=0;exitDy=0;entryX=0.5;entryY=0;entryDx=0;entryDy=0;" edge="1" parent="1" source="Xcv0BSqhcVWVAexfwxqK-11" target="Xcv0BSqhcVWVAexfwxqK-14">
          <mxGeometry width="50" height="50" relative="1" as="geometry">
            <mxPoint x="520" y="300" as="sourcePoint" />
            <mxPoint x="520" y="340" as="targetPoint" />
          </mxGeometry>
        </mxCell>
        <mxCell id="Xcv0BSqhcVWVAexfwxqK-17" value="" style="endArrow=classic;html=1;rounded=0;entryX=0.5;entryY=0;entryDx=0;entryDy=0;" edge="1" parent="1" target="Xcv0BSqhcVWVAexfwxqK-31">
          <mxGeometry width="50" height="50" relative="1" as="geometry">
            <mxPoint x="600" y="720" as="sourcePoint" />
            <mxPoint x="190" y="760" as="targetPoint" />
            <Array as="points">
              <mxPoint x="160" y="720" />
            </Array>
          </mxGeometry>
        </mxCell>
        <mxCell id="Xcv0BSqhcVWVAexfwxqK-18" value="" style="endArrow=classic;html=1;rounded=0;entryX=0.5;entryY=0;entryDx=0;entryDy=0;" edge="1" parent="1" target="Xcv0BSqhcVWVAexfwxqK-42">
          <mxGeometry width="50" height="50" relative="1" as="geometry">
            <mxPoint x="310" y="720" as="sourcePoint" />
            <mxPoint x="310" y="760" as="targetPoint" />
          </mxGeometry>
        </mxCell>
        <mxCell id="Xcv0BSqhcVWVAexfwxqK-19" value="" style="endArrow=classic;html=1;rounded=0;entryX=0.5;entryY=0;entryDx=0;entryDy=0;" edge="1" parent="1" target="Xcv0BSqhcVWVAexfwxqK-62">
          <mxGeometry width="50" height="50" relative="1" as="geometry">
            <mxPoint x="600" y="720" as="sourcePoint" />
            <mxPoint x="1200" y="760" as="targetPoint" />
            <Array as="points">
              <mxPoint x="1090" y="720" />
            </Array>
          </mxGeometry>
        </mxCell>
        <mxCell id="Xcv0BSqhcVWVAexfwxqK-20" value="" style="endArrow=classic;html=1;rounded=0;entryX=0.5;entryY=0;entryDx=0;entryDy=0;" edge="1" parent="1" target="Xcv0BSqhcVWVAexfwxqK-61">
          <mxGeometry width="50" height="50" relative="1" as="geometry">
            <mxPoint x="946" y="720" as="sourcePoint" />
            <mxPoint x="946" y="760" as="targetPoint" />
          </mxGeometry>
        </mxCell>
        <mxCell id="Xcv0BSqhcVWVAexfwxqK-21" value="" style="endArrow=classic;html=1;rounded=0;entryX=0.5;entryY=0;entryDx=0;entryDy=0;" edge="1" parent="1" target="Xcv0BSqhcVWVAexfwxqK-52">
          <mxGeometry width="50" height="50" relative="1" as="geometry">
            <mxPoint x="568" y="720" as="sourcePoint" />
            <mxPoint x="517" y="760" as="targetPoint" />
          </mxGeometry>
        </mxCell>
        <mxCell id="Xcv0BSqhcVWVAexfwxqK-22" value="" style="endArrow=classic;html=1;rounded=0;entryX=0.5;entryY=0;entryDx=0;entryDy=0;" edge="1" parent="1" target="Xcv0BSqhcVWVAexfwxqK-60">
          <mxGeometry width="50" height="50" relative="1" as="geometry">
            <mxPoint x="826" y="720" as="sourcePoint" />
            <mxPoint x="826" y="760" as="targetPoint" />
          </mxGeometry>
        </mxCell>
        <mxCell id="Xcv0BSqhcVWVAexfwxqK-23" value="" style="endArrow=none;html=1;rounded=0;entryX=0.5;entryY=1;entryDx=0;entryDy=0;" edge="1" parent="1" target="Xcv0BSqhcVWVAexfwxqK-14">
          <mxGeometry width="50" height="50" relative="1" as="geometry">
            <mxPoint x="597" y="720" as="sourcePoint" />
            <mxPoint x="587" y="720" as="targetPoint" />
          </mxGeometry>
        </mxCell>
        <mxCell id="Xcv0BSqhcVWVAexfwxqK-25" value="1" style="rounded=0;whiteSpace=wrap;html=1;" vertex="1" parent="1">
          <mxGeometry x="119" y="730" width="30" height="20" as="geometry" />
        </mxCell>
        <mxCell id="Xcv0BSqhcVWVAexfwxqK-26" value="2" style="rounded=0;whiteSpace=wrap;html=1;" vertex="1" parent="1">
          <mxGeometry x="270" y="730" width="30" height="20" as="geometry" />
        </mxCell>
        <mxCell id="Xcv0BSqhcVWVAexfwxqK-27" value="3" style="rounded=0;whiteSpace=wrap;html=1;" vertex="1" parent="1">
          <mxGeometry x="518" y="730" width="30" height="20" as="geometry" />
        </mxCell>
        <mxCell id="Xcv0BSqhcVWVAexfwxqK-28" value="4" style="rounded=0;whiteSpace=wrap;html=1;" vertex="1" parent="1">
          <mxGeometry x="791" y="730" width="30" height="20" as="geometry" />
        </mxCell>
        <mxCell id="Xcv0BSqhcVWVAexfwxqK-29" value="5" style="rounded=0;whiteSpace=wrap;html=1;" vertex="1" parent="1">
          <mxGeometry x="906" y="730" width="30" height="20" as="geometry" />
        </mxCell>
        <mxCell id="Xcv0BSqhcVWVAexfwxqK-30" value="6" style="rounded=0;whiteSpace=wrap;html=1;" vertex="1" parent="1">
          <mxGeometry x="1040" y="730" width="30" height="20" as="geometry" />
        </mxCell>
        <mxCell id="Xcv0BSqhcVWVAexfwxqK-31" value="데이터 입력&lt;br&gt;(x)" style="shape=parallelogram;perimeter=parallelogramPerimeter;whiteSpace=wrap;html=1;fixedSize=1;" vertex="1" parent="1">
          <mxGeometry x="109" y="760" width="100" height="40" as="geometry" />
        </mxCell>
        <mxCell id="Xcv0BSqhcVWVAexfwxqK-32" value="Push(&amp;amp;s,x)" style="shape=process;whiteSpace=wrap;html=1;backgroundOutline=1;" vertex="1" parent="1">
          <mxGeometry x="109" y="820" width="100" height="40" as="geometry" />
        </mxCell>
        <mxCell id="Xcv0BSqhcVWVAexfwxqK-33" value="Push(&amp;amp;s,x)&lt;br&gt;==-1" style="rhombus;whiteSpace=wrap;html=1;" vertex="1" parent="1">
          <mxGeometry x="109" y="880" width="100" height="60" as="geometry" />
        </mxCell>
        <mxCell id="Xcv0BSqhcVWVAexfwxqK-34" value="데이터를 더 이상&lt;br&gt;집어넣을 수 없습니다." style="shape=document;whiteSpace=wrap;html=1;boundedLbl=1;" vertex="1" parent="1">
          <mxGeometry x="99" y="980" width="120" height="80" as="geometry" />
        </mxCell>
        <mxCell id="Xcv0BSqhcVWVAexfwxqK-35" value="" style="endArrow=classic;html=1;rounded=0;exitX=0.5;exitY=1;exitDx=0;exitDy=0;entryX=0.5;entryY=0;entryDx=0;entryDy=0;" edge="1" parent="1" source="Xcv0BSqhcVWVAexfwxqK-31" target="Xcv0BSqhcVWVAexfwxqK-32">
          <mxGeometry width="50" height="50" relative="1" as="geometry">
            <mxPoint x="539" y="720" as="sourcePoint" />
            <mxPoint x="589" y="670" as="targetPoint" />
          </mxGeometry>
        </mxCell>
        <mxCell id="Xcv0BSqhcVWVAexfwxqK-36" value="" style="endArrow=classic;html=1;rounded=0;exitX=0.5;exitY=1;exitDx=0;exitDy=0;entryX=0.5;entryY=0;entryDx=0;entryDy=0;" edge="1" parent="1" source="Xcv0BSqhcVWVAexfwxqK-32" target="Xcv0BSqhcVWVAexfwxqK-33">
          <mxGeometry width="50" height="50" relative="1" as="geometry">
            <mxPoint x="169" y="810" as="sourcePoint" />
            <mxPoint x="169" y="830" as="targetPoint" />
          </mxGeometry>
        </mxCell>
        <mxCell id="Xcv0BSqhcVWVAexfwxqK-37" value="T" style="endArrow=classic;html=1;rounded=0;exitX=0.5;exitY=1;exitDx=0;exitDy=0;entryX=0.5;entryY=0;entryDx=0;entryDy=0;" edge="1" parent="1" source="Xcv0BSqhcVWVAexfwxqK-33" target="Xcv0BSqhcVWVAexfwxqK-34">
          <mxGeometry width="50" height="50" relative="1" as="geometry">
            <mxPoint x="179" y="820" as="sourcePoint" />
            <mxPoint x="179" y="840" as="targetPoint" />
          </mxGeometry>
        </mxCell>
        <mxCell id="Xcv0BSqhcVWVAexfwxqK-38" value="" style="endArrow=classic;html=1;rounded=0;exitX=0.5;exitY=1;exitDx=0;exitDy=0;entryX=0.5;entryY=0;entryDx=0;entryDy=0;" edge="1" parent="1" source="Xcv0BSqhcVWVAexfwxqK-9" target="Xcv0BSqhcVWVAexfwxqK-10">
          <mxGeometry width="50" height="50" relative="1" as="geometry">
            <mxPoint x="656" y="620" as="sourcePoint" />
            <mxPoint x="706" y="570" as="targetPoint" />
          </mxGeometry>
        </mxCell>
        <mxCell id="Xcv0BSqhcVWVAexfwxqK-39" value="" style="endArrow=classic;html=1;rounded=0;exitX=0.5;exitY=1;exitDx=0;exitDy=0;entryX=0.5;entryY=0;entryDx=0;entryDy=0;" edge="1" parent="1" source="Xcv0BSqhcVWVAexfwxqK-10" target="Xcv0BSqhcVWVAexfwxqK-11">
          <mxGeometry width="50" height="50" relative="1" as="geometry">
            <mxPoint x="606" y="400" as="sourcePoint" />
            <mxPoint x="606" y="440" as="targetPoint" />
          </mxGeometry>
        </mxCell>
        <mxCell id="Xcv0BSqhcVWVAexfwxqK-42" value="Pop(&amp;amp;s,&amp;amp;x)" style="shape=process;whiteSpace=wrap;html=1;backgroundOutline=1;" vertex="1" parent="1">
          <mxGeometry x="260" y="780" width="100" height="40" as="geometry" />
        </mxCell>
        <mxCell id="Xcv0BSqhcVWVAexfwxqK-43" value="Pop(&amp;amp;s,&amp;amp;x)&lt;br&gt;==-1" style="rhombus;whiteSpace=wrap;html=1;" vertex="1" parent="1">
          <mxGeometry x="260" y="880" width="100" height="60" as="geometry" />
        </mxCell>
        <mxCell id="Xcv0BSqhcVWVAexfwxqK-44" value="" style="endArrow=classic;html=1;rounded=0;exitX=0.5;exitY=1;exitDx=0;exitDy=0;entryX=0.5;entryY=0;entryDx=0;entryDy=0;" edge="1" parent="1" source="Xcv0BSqhcVWVAexfwxqK-42" target="Xcv0BSqhcVWVAexfwxqK-43">
          <mxGeometry width="50" height="50" relative="1" as="geometry">
            <mxPoint x="169" y="810" as="sourcePoint" />
            <mxPoint x="169" y="830" as="targetPoint" />
          </mxGeometry>
        </mxCell>
        <mxCell id="Xcv0BSqhcVWVAexfwxqK-45" value="T" style="endArrow=classic;html=1;rounded=0;exitX=0.5;exitY=1;exitDx=0;exitDy=0;" edge="1" parent="1" source="Xcv0BSqhcVWVAexfwxqK-43">
          <mxGeometry width="50" height="50" relative="1" as="geometry">
            <mxPoint x="179" y="820" as="sourcePoint" />
            <mxPoint x="310" y="980" as="targetPoint" />
          </mxGeometry>
        </mxCell>
        <mxCell id="Xcv0BSqhcVWVAexfwxqK-46" value="뽑아낼 데이터가 &lt;br&gt;없습니다." style="shape=document;whiteSpace=wrap;html=1;boundedLbl=1;" vertex="1" parent="1">
          <mxGeometry x="250" y="980" width="120" height="80" as="geometry" />
        </mxCell>
        <mxCell id="Xcv0BSqhcVWVAexfwxqK-48" value="" style="endArrow=none;html=1;rounded=0;exitX=0.483;exitY=0.85;exitDx=0;exitDy=0;exitPerimeter=0;" edge="1" parent="1" source="Xcv0BSqhcVWVAexfwxqK-34">
          <mxGeometry width="50" height="50" relative="1" as="geometry">
            <mxPoint x="570" y="920" as="sourcePoint" />
            <mxPoint x="157" y="1120" as="targetPoint" />
          </mxGeometry>
        </mxCell>
        <mxCell id="Xcv0BSqhcVWVAexfwxqK-49" value="F" style="endArrow=classic;html=1;rounded=0;exitX=1;exitY=0.5;exitDx=0;exitDy=0;entryX=0.5;entryY=0;entryDx=0;entryDy=0;" edge="1" parent="1" source="Xcv0BSqhcVWVAexfwxqK-43" target="Xcv0BSqhcVWVAexfwxqK-50">
          <mxGeometry width="50" height="50" relative="1" as="geometry">
            <mxPoint x="570" y="920" as="sourcePoint" />
            <mxPoint x="420" y="980" as="targetPoint" />
            <Array as="points">
              <mxPoint x="440" y="910" />
            </Array>
          </mxGeometry>
        </mxCell>
        <mxCell id="Xcv0BSqhcVWVAexfwxqK-50" value="뽑아낸 데이터는 &lt;br&gt;x 입니다." style="shape=document;whiteSpace=wrap;html=1;boundedLbl=1;" vertex="1" parent="1">
          <mxGeometry x="380" y="980" width="120" height="80" as="geometry" />
        </mxCell>
        <mxCell id="Xcv0BSqhcVWVAexfwxqK-52" value="Peek(&amp;amp;s,&amp;amp;x)" style="shape=process;whiteSpace=wrap;html=1;backgroundOutline=1;" vertex="1" parent="1">
          <mxGeometry x="518" y="780" width="100" height="40" as="geometry" />
        </mxCell>
        <mxCell id="Xcv0BSqhcVWVAexfwxqK-53" value="Peek(&amp;amp;s,&amp;amp;x)&lt;br&gt;==-1" style="rhombus;whiteSpace=wrap;html=1;" vertex="1" parent="1">
          <mxGeometry x="518" y="880" width="100" height="60" as="geometry" />
        </mxCell>
        <mxCell id="Xcv0BSqhcVWVAexfwxqK-54" value="" style="endArrow=classic;html=1;rounded=0;exitX=0.5;exitY=1;exitDx=0;exitDy=0;entryX=0.5;entryY=0;entryDx=0;entryDy=0;" edge="1" parent="1" source="Xcv0BSqhcVWVAexfwxqK-52" target="Xcv0BSqhcVWVAexfwxqK-53">
          <mxGeometry width="50" height="50" relative="1" as="geometry">
            <mxPoint x="427" y="810" as="sourcePoint" />
            <mxPoint x="427" y="830" as="targetPoint" />
          </mxGeometry>
        </mxCell>
        <mxCell id="Xcv0BSqhcVWVAexfwxqK-55" value="T" style="endArrow=classic;html=1;rounded=0;exitX=0.5;exitY=1;exitDx=0;exitDy=0;" edge="1" parent="1" source="Xcv0BSqhcVWVAexfwxqK-53">
          <mxGeometry width="50" height="50" relative="1" as="geometry">
            <mxPoint x="437" y="820" as="sourcePoint" />
            <mxPoint x="568" y="980" as="targetPoint" />
          </mxGeometry>
        </mxCell>
        <mxCell id="Xcv0BSqhcVWVAexfwxqK-56" value="스택의 맨 위 데이터가 없습니다." style="shape=document;whiteSpace=wrap;html=1;boundedLbl=1;" vertex="1" parent="1">
          <mxGeometry x="508" y="980" width="120" height="80" as="geometry" />
        </mxCell>
        <mxCell id="Xcv0BSqhcVWVAexfwxqK-57" value="F" style="endArrow=classic;html=1;rounded=0;exitX=1;exitY=0.5;exitDx=0;exitDy=0;entryX=0.5;entryY=0;entryDx=0;entryDy=0;" edge="1" parent="1" source="Xcv0BSqhcVWVAexfwxqK-53" target="Xcv0BSqhcVWVAexfwxqK-58">
          <mxGeometry width="50" height="50" relative="1" as="geometry">
            <mxPoint x="828" y="920" as="sourcePoint" />
            <mxPoint x="678" y="980" as="targetPoint" />
            <Array as="points">
              <mxPoint x="698" y="910" />
            </Array>
          </mxGeometry>
        </mxCell>
        <mxCell id="Xcv0BSqhcVWVAexfwxqK-58" value="스택의 맨 위 데이터는 x 입니다." style="shape=document;whiteSpace=wrap;html=1;boundedLbl=1;" vertex="1" parent="1">
          <mxGeometry x="638" y="980" width="120" height="80" as="geometry" />
        </mxCell>
        <mxCell id="Xcv0BSqhcVWVAexfwxqK-60" value="Print(&amp;amp;s)" style="shape=process;whiteSpace=wrap;html=1;backgroundOutline=1;" vertex="1" parent="1">
          <mxGeometry x="778" y="770" width="100" height="40" as="geometry" />
        </mxCell>
        <mxCell id="Xcv0BSqhcVWVAexfwxqK-61" value="Clear(&amp;amp;s)" style="shape=process;whiteSpace=wrap;html=1;backgroundOutline=1;" vertex="1" parent="1">
          <mxGeometry x="898" y="770" width="100" height="40" as="geometry" />
        </mxCell>
        <mxCell id="Xcv0BSqhcVWVAexfwxqK-62" value="데이터 입력&lt;br&gt;(x)" style="shape=parallelogram;perimeter=parallelogramPerimeter;whiteSpace=wrap;html=1;fixedSize=1;" vertex="1" parent="1">
          <mxGeometry x="1040" y="760" width="100" height="40" as="geometry" />
        </mxCell>
        <mxCell id="Xcv0BSqhcVWVAexfwxqK-63" value="Search(&amp;amp;s,x)" style="shape=process;whiteSpace=wrap;html=1;backgroundOutline=1;" vertex="1" parent="1">
          <mxGeometry x="1040" y="860" width="100" height="40" as="geometry" />
        </mxCell>
        <mxCell id="Xcv0BSqhcVWVAexfwxqK-64" value="Search(&amp;amp;s,x)&lt;br&gt;==-1" style="rhombus;whiteSpace=wrap;html=1;" vertex="1" parent="1">
          <mxGeometry x="1040" y="920" width="100" height="60" as="geometry" />
        </mxCell>
        <mxCell id="Xcv0BSqhcVWVAexfwxqK-65" value="해당 데이터는&lt;br&gt;&amp;nbsp;없습니다." style="shape=document;whiteSpace=wrap;html=1;boundedLbl=1;" vertex="1" parent="1">
          <mxGeometry x="1030" y="1020" width="120" height="80" as="geometry" />
        </mxCell>
        <mxCell id="Xcv0BSqhcVWVAexfwxqK-66" value="" style="endArrow=classic;html=1;rounded=0;exitX=0.5;exitY=1;exitDx=0;exitDy=0;entryX=0.5;entryY=0;entryDx=0;entryDy=0;" edge="1" parent="1" source="Xcv0BSqhcVWVAexfwxqK-62" target="Xcv0BSqhcVWVAexfwxqK-63">
          <mxGeometry width="50" height="50" relative="1" as="geometry">
            <mxPoint x="1470" y="720" as="sourcePoint" />
            <mxPoint x="1520" y="670" as="targetPoint" />
          </mxGeometry>
        </mxCell>
        <mxCell id="Xcv0BSqhcVWVAexfwxqK-67" value="" style="endArrow=classic;html=1;rounded=0;exitX=0.5;exitY=1;exitDx=0;exitDy=0;entryX=0.5;entryY=0;entryDx=0;entryDy=0;" edge="1" parent="1" source="Xcv0BSqhcVWVAexfwxqK-63" target="Xcv0BSqhcVWVAexfwxqK-64">
          <mxGeometry width="50" height="50" relative="1" as="geometry">
            <mxPoint x="1100" y="850" as="sourcePoint" />
            <mxPoint x="1100" y="870" as="targetPoint" />
          </mxGeometry>
        </mxCell>
        <mxCell id="Xcv0BSqhcVWVAexfwxqK-68" value="T" style="endArrow=classic;html=1;rounded=0;exitX=0.5;exitY=1;exitDx=0;exitDy=0;entryX=0.5;entryY=0;entryDx=0;entryDy=0;" edge="1" parent="1" source="Xcv0BSqhcVWVAexfwxqK-64" target="Xcv0BSqhcVWVAexfwxqK-65">
          <mxGeometry width="50" height="50" relative="1" as="geometry">
            <mxPoint x="1110" y="860" as="sourcePoint" />
            <mxPoint x="1110" y="880" as="targetPoint" />
          </mxGeometry>
        </mxCell>
        <mxCell id="Xcv0BSqhcVWVAexfwxqK-69" value="F" style="endArrow=classic;html=1;rounded=0;exitX=1;exitY=0.5;exitDx=0;exitDy=0;entryX=0.5;entryY=0;entryDx=0;entryDy=0;" edge="1" parent="1" target="Xcv0BSqhcVWVAexfwxqK-70" source="Xcv0BSqhcVWVAexfwxqK-64">
          <mxGeometry width="50" height="50" relative="1" as="geometry">
            <mxPoint x="1150" y="950" as="sourcePoint" />
            <mxPoint x="1210" y="1020" as="targetPoint" />
            <Array as="points">
              <mxPoint x="1230" y="950" />
            </Array>
          </mxGeometry>
        </mxCell>
        <mxCell id="Xcv0BSqhcVWVAexfwxqK-70" value="x는 s[data]에&lt;br&gt;&amp;nbsp;있습니다" style="shape=document;whiteSpace=wrap;html=1;boundedLbl=1;" vertex="1" parent="1">
          <mxGeometry x="1170" y="1020" width="120" height="80" as="geometry" />
        </mxCell>
        <mxCell id="Xcv0BSqhcVWVAexfwxqK-72" value="" style="endArrow=none;html=1;rounded=0;exitX=0.533;exitY=0.838;exitDx=0;exitDy=0;exitPerimeter=0;" edge="1" parent="1" source="Xcv0BSqhcVWVAexfwxqK-46">
          <mxGeometry width="50" height="50" relative="1" as="geometry">
            <mxPoint x="167" y="1058" as="sourcePoint" />
            <mxPoint x="314" y="1120" as="targetPoint" />
          </mxGeometry>
        </mxCell>
        <mxCell id="Xcv0BSqhcVWVAexfwxqK-73" value="" style="endArrow=none;html=1;rounded=0;exitX=0.533;exitY=0.838;exitDx=0;exitDy=0;exitPerimeter=0;" edge="1" parent="1" source="Xcv0BSqhcVWVAexfwxqK-50">
          <mxGeometry width="50" height="50" relative="1" as="geometry">
            <mxPoint x="177" y="1068" as="sourcePoint" />
            <mxPoint x="444" y="1120" as="targetPoint" />
          </mxGeometry>
        </mxCell>
        <mxCell id="Xcv0BSqhcVWVAexfwxqK-74" value="" style="endArrow=none;html=1;rounded=0;exitX=0.542;exitY=0.825;exitDx=0;exitDy=0;exitPerimeter=0;" edge="1" parent="1" source="Xcv0BSqhcVWVAexfwxqK-56">
          <mxGeometry width="50" height="50" relative="1" as="geometry">
            <mxPoint x="187" y="1078" as="sourcePoint" />
            <mxPoint x="573" y="1120" as="targetPoint" />
          </mxGeometry>
        </mxCell>
        <mxCell id="Xcv0BSqhcVWVAexfwxqK-75" value="" style="endArrow=none;html=1;rounded=0;exitX=0.542;exitY=0.863;exitDx=0;exitDy=0;exitPerimeter=0;" edge="1" parent="1" source="Xcv0BSqhcVWVAexfwxqK-58">
          <mxGeometry width="50" height="50" relative="1" as="geometry">
            <mxPoint x="197" y="1088" as="sourcePoint" />
            <mxPoint x="703" y="1120" as="targetPoint" />
          </mxGeometry>
        </mxCell>
        <mxCell id="Xcv0BSqhcVWVAexfwxqK-76" value="" style="endArrow=none;html=1;rounded=0;exitX=0.5;exitY=1;exitDx=0;exitDy=0;" edge="1" parent="1" source="Xcv0BSqhcVWVAexfwxqK-60">
          <mxGeometry width="50" height="50" relative="1" as="geometry">
            <mxPoint x="207" y="1098" as="sourcePoint" />
            <mxPoint x="830" y="1120" as="targetPoint" />
          </mxGeometry>
        </mxCell>
        <mxCell id="Xcv0BSqhcVWVAexfwxqK-77" value="" style="endArrow=none;html=1;rounded=0;exitX=0.5;exitY=1;exitDx=0;exitDy=0;" edge="1" parent="1" source="Xcv0BSqhcVWVAexfwxqK-61">
          <mxGeometry width="50" height="50" relative="1" as="geometry">
            <mxPoint x="217" y="1108" as="sourcePoint" />
            <mxPoint x="950" y="1120" as="targetPoint" />
          </mxGeometry>
        </mxCell>
        <mxCell id="Xcv0BSqhcVWVAexfwxqK-78" value="" style="endArrow=none;html=1;rounded=0;exitX=0.542;exitY=0.825;exitDx=0;exitDy=0;exitPerimeter=0;" edge="1" parent="1" source="Xcv0BSqhcVWVAexfwxqK-65">
          <mxGeometry width="50" height="50" relative="1" as="geometry">
            <mxPoint x="227" y="1118" as="sourcePoint" />
            <mxPoint x="1095" y="1120" as="targetPoint" />
          </mxGeometry>
        </mxCell>
        <mxCell id="Xcv0BSqhcVWVAexfwxqK-79" value="" style="endArrow=none;html=1;rounded=0;exitX=0.575;exitY=0.788;exitDx=0;exitDy=0;exitPerimeter=0;" edge="1" parent="1" source="Xcv0BSqhcVWVAexfwxqK-70">
          <mxGeometry width="50" height="50" relative="1" as="geometry">
            <mxPoint x="237" y="1128" as="sourcePoint" />
            <mxPoint x="1239" y="1120" as="targetPoint" />
          </mxGeometry>
        </mxCell>
        <mxCell id="Xcv0BSqhcVWVAexfwxqK-80" value="" style="endArrow=none;html=1;rounded=0;" edge="1" parent="1">
          <mxGeometry width="50" height="50" relative="1" as="geometry">
            <mxPoint x="1240" y="1120" as="sourcePoint" />
            <mxPoint x="60" y="1120" as="targetPoint" />
          </mxGeometry>
        </mxCell>
        <mxCell id="Xcv0BSqhcVWVAexfwxqK-81" value="" style="endArrow=none;html=1;rounded=0;" edge="1" parent="1">
          <mxGeometry width="50" height="50" relative="1" as="geometry">
            <mxPoint x="60" y="910" as="sourcePoint" />
            <mxPoint x="60" y="1120" as="targetPoint" />
          </mxGeometry>
        </mxCell>
        <mxCell id="Xcv0BSqhcVWVAexfwxqK-84" value="F" style="endArrow=none;html=1;rounded=0;exitX=0;exitY=0.5;exitDx=0;exitDy=0;" edge="1" parent="1" source="Xcv0BSqhcVWVAexfwxqK-33">
          <mxGeometry width="50" height="50" relative="1" as="geometry">
            <mxPoint x="360" y="750" as="sourcePoint" />
            <mxPoint x="60" y="910" as="targetPoint" />
          </mxGeometry>
        </mxCell>
        <mxCell id="Xcv0BSqhcVWVAexfwxqK-85" value="" style="endArrow=classic;html=1;rounded=0;" edge="1" parent="1">
          <mxGeometry width="50" height="50" relative="1" as="geometry">
            <mxPoint x="60" y="910" as="sourcePoint" />
            <mxPoint x="600" y="400" as="targetPoint" />
            <Array as="points">
              <mxPoint x="60" y="400" />
            </Array>
          </mxGeometry>
        </mxCell>
        <mxCell id="Xcv0BSqhcVWVAexfwxqK-86" value="&lt;font style=&quot;font-size: 18px;&quot;&gt;End&lt;/font&gt;" style="ellipse;whiteSpace=wrap;html=1;" vertex="1" parent="1">
          <mxGeometry x="906" y="505" width="80" height="50" as="geometry" />
        </mxCell>
        <mxCell id="Xcv0BSqhcVWVAexfwxqK-87" value="" style="endArrow=classic;html=1;rounded=0;exitX=1;exitY=0.5;exitDx=0;exitDy=0;entryX=0;entryY=0.5;entryDx=0;entryDy=0;" edge="1" parent="1" source="Xcv0BSqhcVWVAexfwxqK-12" target="Xcv0BSqhcVWVAexfwxqK-86">
          <mxGeometry width="50" height="50" relative="1" as="geometry">
            <mxPoint x="860" y="570" as="sourcePoint" />
            <mxPoint x="910" y="520" as="targetPoint" />
          </mxGeometry>
        </mxCell>
        <mxCell id="Xcv0BSqhcVWVAexfwxqK-88" value="" style="endArrow=classic;html=1;rounded=0;exitX=1;exitY=0.5;exitDx=0;exitDy=0;entryX=0.5;entryY=0;entryDx=0;entryDy=0;" edge="1" parent="1" source="Xcv0BSqhcVWVAexfwxqK-4" target="Xcv0BSqhcVWVAexfwxqK-86">
          <mxGeometry width="50" height="50" relative="1" as="geometry">
            <mxPoint x="846" y="540" as="sourcePoint" />
            <mxPoint x="916" y="540" as="targetPoint" />
            <Array as="points">
              <mxPoint x="940" y="250" />
            </Array>
          </mxGeometry>
        </mxCell>
      </root>
    </mxGraphModel>
  </diagram>
</mxfile>
